<?xml version="1.0" standalone="no"?>
<!DOCTYPE svg PUBLIC "-//W3C//DTD SVG 20010904//EN"
 "http://www.w3.org/TR/2001/REC-SVG-20010904/DTD/svg10.dtd">
<svg version="1.0" xmlns="http://www.w3.org/2000/svg"
 width="640.000000pt" height="1280.000000pt" viewBox="0 0 640.000000 1280.000000"
 preserveAspectRatio="xMidYMid meet">
<metadata>
Created by potrace 1.15, written by Peter Selinger 2001-2017
</metadata>
<g transform="translate(0.000000,1280.000000) scale(0.100000,-0.100000)"
fill="#000000" stroke="none">
<path d="M3875 12794 c-244 -40 -394 -160 -511 -409 -49 -104 -46 -102 -159
-129 -82 -20 -194 -71 -202 -93 -9 -24 9 -45 61 -72 65 -33 170 -133 195 -184
19 -40 21 -61 21 -268 0 -283 27 -507 68 -553 9 -10 40 -28 67 -41 62 -27 93
-62 142 -162 35 -72 38 -83 42 -185 2 -81 0 -112 -10 -125 -39 -47 -342 -208
-439 -233 -81 -21 -182 -60 -261 -101 -73 -38 -83 -47 -170 -162 -55 -72 -99
-140 -107 -167 -8 -25 -35 -91 -60 -147 -43 -93 -48 -100 -58 -80 -6 12 -14
59 -17 105 -4 46 -9 87 -12 93 -4 5 -23 9 -44 9 -34 0 -40 -4 -52 -31 l-12
-31 -61 6 c-71 8 -466 38 -781 60 -202 14 -473 40 -553 52 -52 8 -50 -16 11
-119 31 -51 78 -149 106 -217 50 -124 201 -564 259 -755 17 -55 44 -146 61
-201 17 -56 37 -107 45 -113 12 -10 37 -7 121 13 59 14 110 24 115 21 4 -2 24
-33 45 -67 54 -92 180 -262 216 -292 41 -35 83 -34 205 8 116 39 135 48 188
89 l38 30 157 -17 c180 -21 187 -22 195 -41 6 -16 -19 -367 -35 -480 -11 -76
-24 -113 -69 -195 -24 -42 -25 -85 -5 -134 9 -20 13 -40 11 -45 -3 -4 -10 -43
-15 -87 -23 -170 -32 -219 -46 -240 -16 -25 -72 -39 -91 -23 -9 7 -32 9 -63 5
-48 -6 -49 -6 -70 30 -12 20 -45 63 -73 95 -49 57 -53 59 -99 59 -49 0 -70
-13 -50 -33 6 -6 11 -28 11 -49 0 -39 31 -100 64 -127 14 -12 16 -24 11 -66
-4 -32 -3 -55 3 -59 6 -4 -2 -35 -22 -81 -22 -54 -40 -80 -61 -93 -51 -32 -57
-55 -40 -152 22 -118 23 -135 5 -135 -13 0 -26 32 -50 133 -13 52 -40 67 -102
58 -55 -9 -79 -27 -87 -67 l-6 -32 -37 31 c-24 22 -46 32 -68 32 -43 0 -96
-34 -104 -66 -8 -29 0 -45 78 -168 31 -49 56 -93 56 -98 0 -5 -11 -14 -25 -20
-46 -21 -42 -51 13 -126 85 -114 136 -234 188 -442 25 -102 52 -195 59 -206
19 -30 61 -39 90 -20 27 18 27 17 39 -55 15 -85 115 -110 183 -47 13 12 26 19
29 15 8 -8 -23 -520 -36 -586 -5 -28 -16 -124 -25 -213 -9 -90 -23 -200 -31
-246 -9 -50 -13 -101 -9 -125 18 -111 49 -253 77 -355 29 -106 29 -113 14
-137 -9 -14 -21 -48 -26 -77 -15 -75 5 -571 29 -744 11 -76 23 -164 27 -194 4
-30 6 -62 5 -70 -2 -8 -27 -46 -56 -85 -29 -38 -65 -95 -80 -125 -15 -30 -47
-84 -70 -120 -23 -36 -46 -79 -49 -96 -9 -42 12 -92 63 -147 24 -26 41 -54 41
-68 0 -14 -22 -55 -50 -93 -49 -67 -115 -195 -133 -256 -7 -25 -132 -58 -240
-65 -99 -6 -184 -26 -202 -49 -5 -7 -35 -21 -65 -31 -38 -12 -70 -32 -101 -64
-68 -67 -83 -133 -55 -239 12 -45 26 -65 95 -132 44 -43 90 -84 103 -91 104
-57 498 -41 625 24 17 9 91 34 165 56 115 34 152 40 268 46 233 11 328 40 400
121 17 19 30 47 31 62 9 357 9 353 72 592 34 130 36 144 47 408 6 150 15 308
20 350 5 42 14 181 19 307 6 127 12 237 15 245 3 8 12 130 21 270 15 240 28
335 55 405 7 18 13 101 15 210 2 154 5 188 23 235 11 30 23 72 27 93 9 57 22
44 30 -30 4 -37 22 -117 40 -178 30 -97 76 -277 119 -460 18 -78 6 -220 -30
-341 -22 -73 -26 -108 -26 -195 1 -130 23 -325 57 -495 35 -183 85 -502 85
-548 0 -27 13 -63 42 -115 23 -42 41 -87 40 -101 -1 -14 -9 -128 -18 -255 -21
-285 -21 -281 11 -455 39 -211 95 -372 172 -492 16 -26 16 -27 -23 -73 -21
-26 -54 -68 -72 -93 -18 -26 -50 -61 -70 -78 -31 -27 -39 -42 -49 -95 -6 -35
-19 -90 -29 -123 -18 -57 -18 -59 1 -75 11 -9 32 -33 48 -53 35 -48 155 -125
213 -138 75 -17 245 -24 300 -12 108 23 221 72 267 115 38 36 46 51 56 102 17
92 43 174 58 186 7 6 13 22 13 36 0 13 11 46 25 73 21 42 25 63 25 140 0 86 2
92 33 137 18 27 53 80 76 120 40 67 43 78 48 165 7 120 -5 147 -101 231 -139
122 -136 118 -136 182 0 43 8 76 35 136 59 135 77 223 82 414 5 169 -9 593
-28 900 -6 88 -12 270 -13 405 -4 359 -25 487 -126 766 -34 93 -64 189 -67
214 -3 25 2 79 10 120 9 41 30 185 46 320 17 135 33 254 36 266 3 16 17 24 60
33 67 15 91 9 98 -27 4 -15 15 -70 27 -122 23 -106 62 -388 85 -620 26 -255
42 -373 82 -613 l38 -227 -19 -68 c-10 -37 -20 -74 -22 -82 -3 -8 2 -24 10
-35 23 -31 135 -28 201 6 66 33 74 57 52 149 -16 68 -31 174 -77 560 -12 96
-26 195 -31 220 -71 354 -114 627 -126 800 -5 82 -4 89 27 154 27 55 30 70 19
76 -10 7 -7 14 14 34 42 39 77 34 137 -19 35 -31 57 -44 69 -40 10 3 24 -1 31
-10 14 -17 40 -20 40 -4 0 18 -110 127 -159 158 -43 27 -109 52 -176 67 -30 7
-30 7 -5 13 14 4 25 13 25 21 0 19 -48 224 -82 353 l-26 98 32 33 c17 17 31
41 31 52 0 53 -169 642 -192 672 -15 18 -35 15 -41 -8 -6 -25 -44 -27 -51 -2
-15 52 -15 105 -2 175 15 75 14 80 -5 117 -19 37 -20 46 -9 132 6 51 18 112
27 135 8 23 12 46 9 51 -3 5 16 12 44 14 27 3 56 11 65 18 25 21 18 66 -16
105 -18 20 -30 37 -28 38 2 1 17 9 34 17 16 9 40 33 52 55 19 34 23 55 22 135
0 52 -6 130 -13 173 -14 89 -5 117 41 117 58 0 92 29 169 147 94 141 125 211
170 371 20 70 46 161 59 202 13 41 34 113 45 159 12 47 28 97 36 112 8 16 21
60 29 99 16 78 29 104 81 169 l35 44 -5 91 c-3 50 -9 172 -15 271 -5 103 -20
242 -34 325 -38 219 -79 316 -177 424 -54 58 -94 82 -400 239 -85 44 -167 88
-182 98 -14 11 -31 19 -36 19 -6 0 -42 16 -82 36 -60 31 -75 44 -100 88 -17
28 -30 59 -30 69 0 24 36 93 72 138 30 38 58 121 58 176 0 21 15 56 44 101 25
38 48 81 52 96 3 14 26 42 49 62 57 46 69 78 60 156 -3 35 -8 88 -9 118 -2 30
-11 70 -21 89 -16 30 -17 41 -7 78 19 69 15 229 -8 317 -31 122 -82 208 -181
306 -187 185 -228 216 -323 236 -65 15 -271 26 -321 18z"/>
</g>
</svg>
