<svg version="1.1" xmlns="http://www.w3.org/2000/svg" viewBox="0 0 128.82220248166982 120.37490936215681" width="128.82220248166982" height="120.37490936215681" filter="invert(93%) hue-rotate(180deg)">
  <!-- svg-source:excalidraw -->
  
  <defs>
    <style>
      @font-face {
        font-family: "Virgil";
        src: url("https://excalidraw.com/Virgil.woff2");
      }
      @font-face {
        font-family: "Cascadia";
        src: url("https://excalidraw.com/Cascadia.woff2");
      }
    </style>
  </defs>
  <g stroke-linecap="round" transform="translate(9.999999999999943 9.999999999999886) rotate(0 54.41110124083494 50.187454681078464)"><path d="M108.82 50.19 C108.82 52.37, 108.67 54.57, 108.36 56.74 C108.05 58.9, 107.58 61.07, 106.97 63.18 C106.36 65.29, 105.59 67.38, 104.68 69.39 C103.77 71.41, 102.72 73.39, 101.53 75.28 C100.35 77.17, 99.02 79.01, 97.58 80.74 C96.14 82.47, 94.56 84.13, 92.89 85.68 C91.21 87.22, 89.41 88.67, 87.53 90 C85.66 91.33, 83.67 92.56, 81.62 93.65 C79.57 94.74, 77.42 95.72, 75.23 96.55 C73.05 97.39, 70.78 98.1, 68.49 98.66 C66.21 99.23, 63.86 99.66, 61.51 99.95 C59.17 100.23, 56.78 100.37, 54.41 100.37 C52.04 100.37, 49.66 100.23, 47.31 99.95 C44.96 99.66, 42.62 99.23, 40.33 98.66 C38.04 98.1, 35.78 97.39, 33.59 96.55 C31.4 95.72, 29.26 94.74, 27.21 93.65 C25.16 92.56, 23.17 91.33, 21.29 90 C19.41 88.67, 17.61 87.22, 15.94 85.68 C14.26 84.13, 12.69 82.47, 11.24 80.74 C9.8 79.01, 8.47 77.17, 7.29 75.28 C6.11 73.39, 5.05 71.41, 4.14 69.39 C3.24 67.38, 2.47 65.29, 1.85 63.18 C1.24 61.07, 0.77 58.9, 0.47 56.74 C0.16 54.57, 0 52.37, 0 50.19 C0 48, 0.16 45.8, 0.47 43.64 C0.77 41.47, 1.24 39.31, 1.85 37.2 C2.47 35.09, 3.24 33, 4.14 30.98 C5.05 28.96, 6.11 26.98, 7.29 25.09 C8.47 23.2, 9.8 21.37, 11.24 19.64 C12.69 17.9, 14.26 16.24, 15.94 14.7 C17.61 13.16, 19.41 11.7, 21.29 10.37 C23.17 9.04, 25.16 7.82, 27.21 6.72 C29.26 5.63, 31.4 4.66, 33.59 3.82 C35.78 2.98, 38.04 2.28, 40.33 1.71 C42.62 1.14, 44.96 0.71, 47.31 0.43 C49.66 0.14, 52.04 0, 54.41 0 C56.78 0, 59.17 0.14, 61.51 0.43 C63.86 0.71, 66.21 1.14, 68.49 1.71 C70.78 2.28, 73.05 2.98, 75.23 3.82 C77.42 4.66, 79.57 5.63, 81.62 6.72 C83.67 7.82, 85.66 9.04, 87.53 10.37 C89.41 11.7, 91.21 13.16, 92.89 14.7 C94.56 16.24, 96.14 17.9, 97.58 19.64 C99.02 21.37, 100.35 23.2, 101.53 25.09 C102.72 26.98, 103.77 28.96, 104.68 30.98 C105.59 33, 106.36 35.09, 106.97 37.2 C107.58 39.31, 108.05 41.47, 108.36 43.64 C108.67 45.8, 108.74 49.1, 108.82 50.19 C108.9 51.28, 108.9 49.1, 108.82 50.19" stroke="none" stroke-width="0" fill="#228be6"></path><path d="M108.82 50.19 C108.82 52.37, 108.67 54.57, 108.36 56.74 C108.05 58.9, 107.58 61.07, 106.97 63.18 C106.36 65.29, 105.59 67.38, 104.68 69.39 C103.77 71.41, 102.72 73.39, 101.53 75.28 C100.35 77.17, 99.02 79.01, 97.58 80.74 C96.14 82.47, 94.56 84.13, 92.89 85.68 C91.21 87.22, 89.41 88.67, 87.53 90 C85.66 91.33, 83.67 92.56, 81.62 93.65 C79.57 94.74, 77.42 95.72, 75.23 96.55 C73.05 97.39, 70.78 98.1, 68.49 98.66 C66.21 99.23, 63.86 99.66, 61.51 99.95 C59.17 100.23, 56.78 100.37, 54.41 100.37 C52.04 100.37, 49.66 100.23, 47.31 99.95 C44.96 99.66, 42.62 99.23, 40.33 98.66 C38.04 98.1, 35.78 97.39, 33.59 96.55 C31.4 95.72, 29.26 94.74, 27.21 93.65 C25.16 92.56, 23.17 91.33, 21.29 90 C19.41 88.67, 17.61 87.22, 15.94 85.68 C14.26 84.13, 12.69 82.47, 11.24 80.74 C9.8 79.01, 8.47 77.17, 7.29 75.28 C6.11 73.39, 5.05 71.41, 4.14 69.39 C3.24 67.38, 2.47 65.29, 1.85 63.18 C1.24 61.07, 0.77 58.9, 0.47 56.74 C0.16 54.57, 0 52.37, 0 50.19 C0 48, 0.16 45.8, 0.47 43.64 C0.77 41.47, 1.24 39.31, 1.85 37.2 C2.47 35.09, 3.24 33, 4.14 30.98 C5.05 28.96, 6.11 26.98, 7.29 25.09 C8.47 23.2, 9.8 21.37, 11.24 19.64 C12.69 17.9, 14.26 16.24, 15.94 14.7 C17.61 13.16, 19.41 11.7, 21.29 10.37 C23.17 9.04, 25.16 7.82, 27.21 6.72 C29.26 5.63, 31.4 4.66, 33.59 3.82 C35.78 2.98, 38.04 2.28, 40.33 1.71 C42.62 1.14, 44.96 0.71, 47.31 0.43 C49.66 0.14, 52.04 0, 54.41 0 C56.78 0, 59.17 0.14, 61.51 0.43 C63.86 0.71, 66.21 1.14, 68.49 1.71 C70.78 2.28, 73.05 2.98, 75.23 3.82 C77.42 4.66, 79.57 5.63, 81.62 6.72 C83.67 7.82, 85.66 9.04, 87.53 10.37 C89.41 11.7, 91.21 13.16, 92.89 14.7 C94.56 16.24, 96.14 17.9, 97.58 19.64 C99.02 21.37, 100.35 23.2, 101.53 25.09 C102.72 26.98, 103.77 28.96, 104.68 30.98 C105.59 33, 106.36 35.09, 106.97 37.2 C107.58 39.31, 108.05 41.47, 108.36 43.64 C108.67 45.8, 108.74 49.1, 108.82 50.19 C108.9 51.28, 108.9 49.1, 108.82 50.19" stroke="#000000" stroke-width="2" fill="none"></path></g><g stroke-linecap="round" transform="translate(21.369314029831116 35.05758047839629) rotate(0 20.444191170850047 18.310628981842342)"><path d="M40.89 18.31 C40.89 19.37, 40.78 20.45, 40.58 21.49 C40.37 22.53, 40.06 23.58, 39.66 24.57 C39.25 25.57, 38.74 26.55, 38.15 27.47 C37.56 28.38, 36.87 29.27, 36.11 30.08 C35.34 30.89, 34.49 31.66, 33.59 32.34 C32.68 33.02, 31.69 33.64, 30.67 34.17 C29.64 34.7, 28.55 35.15, 27.44 35.52 C26.32 35.88, 25.16 36.16, 23.99 36.34 C22.83 36.53, 21.63 36.62, 20.44 36.62 C19.26 36.62, 18.06 36.53, 16.89 36.34 C15.73 36.16, 14.56 35.88, 13.45 35.52 C12.34 35.15, 11.25 34.7, 10.22 34.17 C9.2 33.64, 8.21 33.02, 7.3 32.34 C6.4 31.66, 5.54 30.89, 4.78 30.08 C4.02 29.27, 3.33 28.38, 2.74 27.47 C2.15 26.55, 1.64 25.57, 1.23 24.57 C0.83 23.58, 0.52 22.53, 0.31 21.49 C0.11 20.45, 0 19.37, 0 18.31 C0 17.25, 0.11 16.17, 0.31 15.13 C0.52 14.09, 0.83 13.04, 1.23 12.05 C1.64 11.05, 2.15 10.07, 2.74 9.16 C3.33 8.24, 4.02 7.35, 4.78 6.54 C5.54 5.73, 6.4 4.97, 7.3 4.28 C8.21 3.6, 9.2 2.98, 10.22 2.45 C11.25 1.92, 12.34 1.47, 13.45 1.1 C14.56 0.74, 15.73 0.46, 16.89 0.28 C18.06 0.09, 19.26 0, 20.44 0 C21.63 0, 22.83 0.09, 23.99 0.28 C25.16 0.46, 26.32 0.74, 27.44 1.1 C28.55 1.47, 29.64 1.92, 30.67 2.45 C31.69 2.98, 32.68 3.6, 33.59 4.28 C34.49 4.97, 35.34 5.73, 36.11 6.54 C36.87 7.35, 37.56 8.24, 38.15 9.16 C38.74 10.07, 39.25 11.05, 39.66 12.05 C40.06 13.04, 40.37 14.09, 40.58 15.13 C40.78 16.17, 40.84 17.78, 40.89 18.31 C40.94 18.84, 40.94 17.78, 40.89 18.31" stroke="none" stroke-width="0" fill="#5f3dc4"></path><path d="M40.89 18.31 C40.89 19.37, 40.78 20.45, 40.58 21.49 C40.37 22.53, 40.06 23.58, 39.66 24.57 C39.25 25.57, 38.74 26.55, 38.15 27.47 C37.56 28.38, 36.87 29.27, 36.11 30.08 C35.34 30.89, 34.49 31.66, 33.59 32.34 C32.68 33.02, 31.69 33.64, 30.67 34.17 C29.64 34.7, 28.55 35.15, 27.44 35.52 C26.32 35.88, 25.16 36.16, 23.99 36.34 C22.83 36.53, 21.63 36.62, 20.44 36.62 C19.26 36.62, 18.06 36.53, 16.89 36.34 C15.73 36.16, 14.56 35.88, 13.45 35.52 C12.34 35.15, 11.25 34.7, 10.22 34.17 C9.2 33.64, 8.21 33.02, 7.3 32.34 C6.4 31.66, 5.54 30.89, 4.78 30.08 C4.02 29.27, 3.33 28.38, 2.74 27.47 C2.15 26.55, 1.64 25.57, 1.23 24.57 C0.83 23.58, 0.52 22.53, 0.31 21.49 C0.11 20.45, 0 19.37, 0 18.31 C0 17.25, 0.11 16.17, 0.31 15.13 C0.52 14.09, 0.83 13.04, 1.23 12.05 C1.64 11.05, 2.15 10.07, 2.74 9.16 C3.33 8.24, 4.02 7.35, 4.78 6.54 C5.54 5.73, 6.4 4.97, 7.3 4.28 C8.21 3.6, 9.2 2.98, 10.22 2.45 C11.25 1.92, 12.34 1.47, 13.45 1.1 C14.56 0.74, 15.73 0.46, 16.89 0.28 C18.06 0.09, 19.26 0, 20.44 0 C21.63 0, 22.83 0.09, 23.99 0.28 C25.16 0.46, 26.32 0.74, 27.44 1.1 C28.55 1.47, 29.64 1.92, 30.67 2.45 C31.69 2.98, 32.68 3.6, 33.59 4.28 C34.49 4.97, 35.34 5.73, 36.11 6.54 C36.87 7.35, 37.56 8.24, 38.15 9.16 C38.74 10.07, 39.25 11.05, 39.66 12.05 C40.06 13.04, 40.37 14.09, 40.58 15.13 C40.78 16.17, 40.84 17.78, 40.89 18.31 C40.94 18.84, 40.94 17.78, 40.89 18.31" stroke="#000000" stroke-width="2" fill="none"></path></g><g stroke-linecap="round" transform="translate(50.2989260642438 83.35371620397564) rotate(0 7.110654959109013 5.658482284764375)"><path d="M14.22 5.66 C14.22 5.99, 14.18 6.32, 14.11 6.64 C14.04 6.96, 13.93 7.29, 13.79 7.59 C13.65 7.9, 13.47 8.2, 13.27 8.49 C13.06 8.77, 12.82 9.04, 12.56 9.3 C12.29 9.55, 12 9.78, 11.68 9.99 C11.37 10.2, 11.02 10.4, 10.67 10.56 C10.31 10.72, 9.93 10.86, 9.54 10.98 C9.16 11.09, 8.75 11.17, 8.35 11.23 C7.94 11.29, 7.52 11.32, 7.11 11.32 C6.7 11.32, 6.28 11.29, 5.88 11.23 C5.47 11.17, 5.07 11.09, 4.68 10.98 C4.29 10.86, 3.91 10.72, 3.56 10.56 C3.2 10.4, 2.86 10.2, 2.54 9.99 C2.22 9.78, 1.93 9.55, 1.66 9.3 C1.4 9.04, 1.16 8.77, 0.95 8.49 C0.75 8.2, 0.57 7.9, 0.43 7.59 C0.29 7.29, 0.18 6.96, 0.11 6.64 C0.04 6.32, 0 5.99, 0 5.66 C0 5.33, 0.04 5, 0.11 4.68 C0.18 4.35, 0.29 4.03, 0.43 3.72 C0.57 3.42, 0.75 3.11, 0.95 2.83 C1.16 2.55, 1.4 2.27, 1.66 2.02 C1.93 1.77, 2.22 1.53, 2.54 1.32 C2.86 1.11, 3.2 0.92, 3.56 0.76 C3.91 0.59, 4.29 0.45, 4.68 0.34 C5.07 0.23, 5.47 0.14, 5.88 0.09 C6.28 0.03, 6.7 0, 7.11 0 C7.52 0, 7.94 0.03, 8.35 0.09 C8.75 0.14, 9.16 0.23, 9.54 0.34 C9.93 0.45, 10.31 0.59, 10.67 0.76 C11.02 0.92, 11.37 1.11, 11.68 1.32 C12 1.53, 12.29 1.77, 12.56 2.02 C12.82 2.27, 13.06 2.55, 13.27 2.83 C13.47 3.11, 13.65 3.42, 13.79 3.72 C13.93 4.03, 14.04 4.35, 14.11 4.68 C14.18 5, 14.2 5.49, 14.22 5.66 C14.24 5.82, 14.24 5.49, 14.22 5.66" stroke="none" stroke-width="0" fill="#5f3dc4"></path><path d="M14.22 5.66 C14.22 5.99, 14.18 6.32, 14.11 6.64 C14.04 6.96, 13.93 7.29, 13.79 7.59 C13.65 7.9, 13.47 8.2, 13.27 8.49 C13.06 8.77, 12.82 9.04, 12.56 9.3 C12.29 9.55, 12 9.78, 11.68 9.99 C11.37 10.2, 11.02 10.4, 10.67 10.56 C10.31 10.72, 9.93 10.86, 9.54 10.98 C9.16 11.09, 8.75 11.17, 8.35 11.23 C7.94 11.29, 7.52 11.32, 7.11 11.32 C6.7 11.32, 6.28 11.29, 5.88 11.23 C5.47 11.17, 5.07 11.09, 4.68 10.98 C4.29 10.86, 3.91 10.72, 3.56 10.56 C3.2 10.4, 2.86 10.2, 2.54 9.99 C2.22 9.78, 1.93 9.55, 1.66 9.3 C1.4 9.04, 1.16 8.77, 0.95 8.49 C0.75 8.2, 0.57 7.9, 0.43 7.59 C0.29 7.29, 0.18 6.96, 0.11 6.64 C0.04 6.32, 0 5.99, 0 5.66 C0 5.33, 0.04 5, 0.11 4.68 C0.18 4.35, 0.29 4.03, 0.43 3.72 C0.57 3.42, 0.75 3.11, 0.95 2.83 C1.16 2.55, 1.4 2.27, 1.66 2.02 C1.93 1.77, 2.22 1.53, 2.54 1.32 C2.86 1.11, 3.2 0.92, 3.56 0.76 C3.91 0.59, 4.29 0.45, 4.68 0.34 C5.07 0.23, 5.47 0.14, 5.88 0.09 C6.28 0.03, 6.7 0, 7.11 0 C7.52 0, 7.94 0.03, 8.35 0.09 C8.75 0.14, 9.16 0.23, 9.54 0.34 C9.93 0.45, 10.31 0.59, 10.67 0.76 C11.02 0.92, 11.37 1.11, 11.68 1.32 C12 1.53, 12.29 1.77, 12.56 2.02 C12.82 2.27, 13.06 2.55, 13.27 2.83 C13.47 3.11, 13.65 3.42, 13.79 3.72 C13.93 4.03, 14.04 4.35, 14.11 4.68 C14.18 5, 14.2 5.49, 14.22 5.66 C14.24 5.82, 14.24 5.49, 14.22 5.66" stroke="#000000" stroke-width="2" fill="none"></path></g><g stroke-linecap="round" transform="translate(77.39657787789906 75.63538762611483) rotate(0 4.0672076809738655 3.756327735929858)"><path d="M8.13 3.76 C8.13 3.97, 8.11 4.19, 8.07 4.41 C8.03 4.62, 7.97 4.84, 7.89 5.04 C7.81 5.25, 7.71 5.45, 7.59 5.63 C7.47 5.82, 7.33 6, 7.18 6.17 C7.03 6.34, 6.86 6.49, 6.68 6.63 C6.5 6.77, 6.3 6.9, 6.1 7.01 C5.9 7.12, 5.68 7.21, 5.46 7.29 C5.24 7.36, 5.01 7.42, 4.77 7.46 C4.54 7.49, 4.3 7.51, 4.07 7.51 C3.83 7.51, 3.59 7.49, 3.36 7.46 C3.13 7.42, 2.9 7.36, 2.68 7.29 C2.45 7.21, 2.24 7.12, 2.03 7.01 C1.83 6.9, 1.63 6.77, 1.45 6.63 C1.27 6.49, 1.1 6.34, 0.95 6.17 C0.8 6, 0.66 5.82, 0.54 5.63 C0.43 5.45, 0.33 5.25, 0.25 5.04 C0.16 4.84, 0.1 4.62, 0.06 4.41 C0.02 4.19, 0 3.97, 0 3.76 C0 3.54, 0.02 3.32, 0.06 3.1 C0.1 2.89, 0.16 2.68, 0.25 2.47 C0.33 2.27, 0.43 2.07, 0.54 1.88 C0.66 1.69, 0.8 1.51, 0.95 1.34 C1.1 1.18, 1.27 1.02, 1.45 0.88 C1.63 0.74, 1.83 0.61, 2.03 0.5 C2.24 0.39, 2.45 0.3, 2.68 0.23 C2.9 0.15, 3.13 0.09, 3.36 0.06 C3.59 0.02, 3.83 0, 4.07 0 C4.3 0, 4.54 0.02, 4.77 0.06 C5.01 0.09, 5.24 0.15, 5.46 0.23 C5.68 0.3, 5.9 0.39, 6.1 0.5 C6.3 0.61, 6.5 0.74, 6.68 0.88 C6.86 1.02, 7.03 1.18, 7.18 1.34 C7.33 1.51, 7.47 1.69, 7.59 1.88 C7.71 2.07, 7.81 2.27, 7.89 2.47 C7.97 2.68, 8.03 2.89, 8.07 3.1 C8.11 3.32, 8.12 3.65, 8.13 3.76 C8.14 3.87, 8.14 3.65, 8.13 3.76" stroke="none" stroke-width="0" fill="#5f3dc4"></path><path d="M8.13 3.76 C8.13 3.97, 8.11 4.19, 8.07 4.41 C8.03 4.62, 7.97 4.84, 7.89 5.04 C7.81 5.25, 7.71 5.45, 7.59 5.63 C7.47 5.82, 7.33 6, 7.18 6.17 C7.03 6.34, 6.86 6.49, 6.68 6.63 C6.5 6.77, 6.3 6.9, 6.1 7.01 C5.9 7.12, 5.68 7.21, 5.46 7.29 C5.24 7.36, 5.01 7.42, 4.77 7.46 C4.54 7.49, 4.3 7.51, 4.07 7.51 C3.83 7.51, 3.59 7.49, 3.36 7.46 C3.13 7.42, 2.9 7.36, 2.68 7.29 C2.45 7.21, 2.24 7.12, 2.03 7.01 C1.83 6.9, 1.63 6.77, 1.45 6.63 C1.27 6.49, 1.1 6.34, 0.95 6.17 C0.8 6, 0.66 5.82, 0.54 5.63 C0.43 5.45, 0.33 5.25, 0.25 5.04 C0.16 4.84, 0.1 4.62, 0.06 4.41 C0.02 4.19, 0 3.97, 0 3.76 C0 3.54, 0.02 3.32, 0.06 3.1 C0.1 2.89, 0.16 2.68, 0.25 2.47 C0.33 2.27, 0.43 2.07, 0.54 1.88 C0.66 1.69, 0.8 1.51, 0.95 1.34 C1.1 1.18, 1.27 1.02, 1.45 0.88 C1.63 0.74, 1.83 0.61, 2.03 0.5 C2.24 0.39, 2.45 0.3, 2.68 0.23 C2.9 0.15, 3.13 0.09, 3.36 0.06 C3.59 0.02, 3.83 0, 4.07 0 C4.3 0, 4.54 0.02, 4.77 0.06 C5.01 0.09, 5.24 0.15, 5.46 0.23 C5.68 0.3, 5.9 0.39, 6.1 0.5 C6.3 0.61, 6.5 0.74, 6.68 0.88 C6.86 1.02, 7.03 1.18, 7.18 1.34 C7.33 1.51, 7.47 1.69, 7.59 1.88 C7.71 2.07, 7.81 2.27, 7.89 2.47 C7.97 2.68, 8.03 2.89, 8.07 3.1 C8.11 3.32, 8.12 3.65, 8.13 3.76 C8.14 3.87, 8.14 3.65, 8.13 3.76" stroke="#000000" stroke-width="2" fill="none"></path></g><g stroke-linecap="round" transform="translate(85.56214557068665 53.76465673140444) rotate(0 3.0527252549288164 2.6150350066291708)"><path d="M6.11 2.62 C6.11 2.77, 6.09 2.92, 6.06 3.07 C6.03 3.22, 5.98 3.37, 5.92 3.51 C5.86 3.65, 5.78 3.79, 5.7 3.92 C5.61 4.05, 5.5 4.18, 5.39 4.3 C5.28 4.41, 5.15 4.52, 5.01 4.62 C4.88 4.72, 4.73 4.8, 4.58 4.88 C4.43 4.96, 4.26 5.02, 4.1 5.07 C3.93 5.12, 3.76 5.16, 3.58 5.19 C3.41 5.22, 3.23 5.23, 3.05 5.23 C2.88 5.23, 2.7 5.22, 2.52 5.19 C2.35 5.16, 2.17 5.12, 2.01 5.07 C1.84 5.02, 1.68 4.96, 1.53 4.88 C1.37 4.8, 1.23 4.72, 1.09 4.62 C0.96 4.52, 0.83 4.41, 0.71 4.3 C0.6 4.18, 0.5 4.05, 0.41 3.92 C0.32 3.79, 0.24 3.65, 0.18 3.51 C0.12 3.37, 0.08 3.22, 0.05 3.07 C0.02 2.92, 0 2.77, 0 2.62 C0 2.46, 0.02 2.31, 0.05 2.16 C0.08 2.01, 0.12 1.86, 0.18 1.72 C0.24 1.58, 0.32 1.44, 0.41 1.31 C0.5 1.18, 0.6 1.05, 0.71 0.93 C0.83 0.82, 0.96 0.71, 1.09 0.61 C1.23 0.51, 1.37 0.43, 1.53 0.35 C1.68 0.27, 1.84 0.21, 2.01 0.16 C2.17 0.11, 2.35 0.07, 2.52 0.04 C2.7 0.01, 2.88 0, 3.05 0 C3.23 0, 3.41 0.01, 3.58 0.04 C3.76 0.07, 3.93 0.11, 4.1 0.16 C4.26 0.21, 4.43 0.27, 4.58 0.35 C4.73 0.43, 4.88 0.51, 5.01 0.61 C5.15 0.71, 5.28 0.82, 5.39 0.93 C5.5 1.05, 5.61 1.18, 5.7 1.31 C5.78 1.44, 5.86 1.58, 5.92 1.72 C5.98 1.86, 6.03 2.01, 6.06 2.16 C6.09 2.31, 6.1 2.54, 6.11 2.62 C6.11 2.69, 6.11 2.54, 6.11 2.62" stroke="none" stroke-width="0" fill="#5f3dc4"></path><path d="M6.11 2.62 C6.11 2.77, 6.09 2.92, 6.06 3.07 C6.03 3.22, 5.98 3.37, 5.92 3.51 C5.86 3.65, 5.78 3.79, 5.7 3.92 C5.61 4.05, 5.5 4.18, 5.39 4.3 C5.28 4.41, 5.15 4.52, 5.01 4.62 C4.88 4.72, 4.73 4.8, 4.58 4.88 C4.43 4.96, 4.26 5.02, 4.1 5.07 C3.93 5.12, 3.76 5.16, 3.58 5.19 C3.41 5.22, 3.23 5.23, 3.05 5.23 C2.88 5.23, 2.7 5.22, 2.52 5.19 C2.35 5.16, 2.17 5.12, 2.01 5.07 C1.84 5.02, 1.68 4.96, 1.53 4.88 C1.37 4.8, 1.23 4.72, 1.09 4.62 C0.96 4.52, 0.83 4.41, 0.71 4.3 C0.6 4.18, 0.5 4.05, 0.41 3.92 C0.32 3.79, 0.24 3.65, 0.18 3.51 C0.12 3.37, 0.08 3.22, 0.05 3.07 C0.02 2.92, 0 2.77, 0 2.62 C0 2.46, 0.02 2.31, 0.05 2.16 C0.08 2.01, 0.12 1.86, 0.18 1.72 C0.24 1.58, 0.32 1.44, 0.41 1.31 C0.5 1.18, 0.6 1.05, 0.71 0.93 C0.83 0.82, 0.96 0.71, 1.09 0.61 C1.23 0.51, 1.37 0.43, 1.53 0.35 C1.68 0.27, 1.84 0.21, 2.01 0.16 C2.17 0.11, 2.35 0.07, 2.52 0.04 C2.7 0.01, 2.88 0, 3.05 0 C3.23 0, 3.41 0.01, 3.58 0.04 C3.76 0.07, 3.93 0.11, 4.1 0.16 C4.26 0.21, 4.43 0.27, 4.58 0.35 C4.73 0.43, 4.88 0.51, 5.01 0.61 C5.15 0.71, 5.28 0.82, 5.39 0.93 C5.5 1.05, 5.61 1.18, 5.7 1.31 C5.78 1.44, 5.86 1.58, 5.92 1.72 C5.98 1.86, 6.03 2.01, 6.06 2.16 C6.09 2.31, 6.1 2.54, 6.11 2.62 C6.11 2.69, 6.11 2.54, 6.11 2.62" stroke="#000000" stroke-width="2" fill="none"></path></g><g transform="translate(59.74909090452559 11.701543403655705) rotate(0 5.301480795455404 4.8596907291674825)"><text x="0" y="7.719381458334926" font-family="Cascadia, Segoe UI Emoji" font-size="7.926719834709612px" fill="#000000" text-anchor="start" style="white-space: pre;" direction="ltr">NK</text></g></svg>