<svg width="1079" height="163" viewBox="0 0 1079 163" fill="none" xmlns="http://www.w3.org/2000/svg">
<path d="M748.159 114.918C745.196 114.918 743.715 113.403 743.715 110.373C743.715 108.622 744.119 106.569 744.927 104.212C745.735 101.923 746.711 99.566 747.856 97.142C749.068 94.6507 750.28 92.3277 751.492 90.173C752.771 87.951 753.848 86.0993 754.724 84.618C753.646 84.2813 752.434 83.81 751.088 83.204C749.808 82.5307 748.697 81.7227 747.755 80.78C746.879 79.77 746.442 78.558 746.442 77.144C746.442 76.134 746.778 74.9893 747.452 73.71C748.192 72.3633 749.169 71.69 750.381 71.69C750.785 71.69 750.987 71.8583 750.987 72.195C750.987 72.6663 750.616 73.2723 749.876 74.013C749.202 74.6863 748.866 75.629 748.866 76.841C748.866 77.9183 749.236 78.8947 749.977 79.77C750.717 80.6453 751.593 81.386 752.603 81.992C753.68 82.5307 754.656 82.9683 755.532 83.305C756.811 81.285 758.09 79.2987 759.37 77.346C760.649 75.326 761.928 73.3397 763.208 71.387C762.534 71.0503 761.827 70.7473 761.087 70.478C760.346 70.2087 759.605 70.074 758.865 70.074C757.249 70.074 756.037 70.5453 755.229 71.488C754.421 72.3633 753.781 73.407 753.31 74.619C752.906 75.831 752.535 76.9083 752.199 77.851C751.929 78.7263 751.525 79.164 750.987 79.164C750.785 79.164 750.684 78.9957 750.684 78.659C750.684 76.9757 751.222 75.225 752.3 73.407C753.444 71.5217 754.858 69.9393 756.542 68.66C758.292 67.3807 760.043 66.741 761.794 66.741C763.208 66.741 764.521 67.044 765.733 67.65C767.82 64.62 769.907 61.6237 771.995 58.661C774.149 55.631 776.371 52.6683 778.661 49.773C778.593 49.0323 779.031 48.0897 779.974 46.945C780.916 45.8003 781.623 44.925 782.095 44.319C779.199 43.6457 776.237 43.1743 773.207 42.905C770.244 42.5683 767.248 42.4 764.218 42.4C760.11 42.4 755.969 42.703 751.795 43.309C747.687 43.915 743.681 44.8913 739.776 46.238C738.294 46.7093 736.544 47.45 734.524 48.46C732.504 49.47 730.719 50.7157 729.171 52.197C727.622 53.611 726.848 55.2607 726.848 57.146C726.848 58.6273 727.319 59.9067 728.262 60.984C729.204 61.994 730.349 62.8357 731.696 63.509C733.042 64.1823 734.288 64.7547 735.433 65.226C735.5 65.2933 735.635 65.3943 735.837 65.529C736.106 65.5963 736.241 65.6973 736.241 65.832C736.241 66.034 736.039 66.1687 735.635 66.236C735.231 66.3033 734.961 66.337 734.827 66.337C734.49 66.337 734.254 66.3033 734.12 66.236C733.11 65.8993 731.864 65.4617 730.383 64.923C728.901 64.3843 727.454 63.711 726.04 62.903C724.626 62.095 723.447 61.1523 722.505 60.075C721.562 58.9977 721.091 57.7857 721.091 56.439C721.091 54.9577 721.629 53.611 722.707 52.399C723.784 51.1197 725.131 50.0087 726.747 49.066C728.363 48.056 729.979 47.2143 731.595 46.541C733.278 45.8677 734.692 45.329 735.837 44.925C740.079 43.5783 744.388 42.5683 748.765 41.895C753.209 41.2217 757.653 40.885 762.097 40.885C765.598 40.885 769.066 41.087 772.5 41.491C776.001 41.895 779.435 42.5347 782.802 43.41C783.138 43.006 783.475 42.5347 783.812 41.996C784.216 41.39 784.586 40.9187 784.923 40.582C785.461 40.0433 786.303 39.6393 787.448 39.37C788.592 39.1007 789.535 38.966 790.276 38.966C790.545 38.966 790.949 39.0333 791.488 39.168C792.026 39.2353 792.296 39.471 792.296 39.875C792.296 40.0097 791.959 40.481 791.286 41.289C790.68 42.0297 790.04 42.7703 789.367 43.511C788.693 44.2517 788.256 44.7567 788.054 45.026C789.737 45.632 791.521 46.44 793.407 47.45C795.359 48.3927 797.211 49.5373 798.962 50.884C800.712 52.2307 802.126 53.7793 803.204 55.53C804.348 57.2133 804.921 59.0987 804.921 61.186C804.921 63.812 804.045 66.236 802.295 68.458C800.611 70.68 798.457 72.7 795.831 74.518C793.272 76.336 790.612 77.9183 787.852 79.265C785.091 80.5443 782.633 81.5543 780.479 82.295C781.691 83.7763 783.273 85.7963 785.226 88.355C787.246 90.8463 789.333 93.4723 791.488 96.233C793.71 98.9263 795.864 101.384 797.952 103.606C800.039 105.828 801.79 107.41 803.204 108.353C803.54 108.622 803.911 108.858 804.315 109.06C804.786 109.262 805.257 109.363 805.729 109.363C806.739 109.363 807.412 108.925 807.749 108.05C808.085 107.175 808.254 106.198 808.254 105.121C808.321 104.044 808.355 103.202 808.355 102.596C808.355 102.259 808.523 102.091 808.86 102.091C809.129 102.091 809.297 102.394 809.365 103C809.499 103.606 809.567 104.246 809.567 104.919C809.634 105.592 809.668 106.064 809.668 106.333C809.668 107.747 809.365 109.06 808.759 110.272C808.153 111.484 807.008 112.09 805.325 112.09C803.507 112.09 801.487 111.349 799.265 109.868C797.11 108.387 794.888 106.468 792.599 104.111C790.309 101.754 788.087 99.263 785.933 96.637C783.778 94.011 781.825 91.5533 780.075 89.264C778.391 86.9073 777.011 85.0557 775.934 83.709C773.846 84.2477 771.725 84.719 769.571 85.123C767.416 85.527 765.261 85.729 763.107 85.729C762.433 85.729 761.76 85.729 761.087 85.729C760.481 85.6617 759.841 85.5943 759.168 85.527C758.36 87.0083 757.417 88.7927 756.34 90.88C755.33 92.9673 754.32 95.1893 753.31 97.546C752.367 99.8353 751.559 102.057 750.886 104.212C750.28 106.434 749.977 108.387 749.977 110.07C749.977 110.676 750.078 111.316 750.28 111.989C750.482 112.662 750.953 112.999 751.694 112.999C752.3 112.999 752.872 112.898 753.411 112.696C754.017 112.561 754.589 112.494 755.128 112.494C755.195 112.494 755.33 112.494 755.532 112.494C755.801 112.494 755.936 112.561 755.936 112.696C755.936 112.965 755.363 113.268 754.219 113.605C753.141 114.009 751.963 114.312 750.684 114.514C749.404 114.783 748.563 114.918 748.159 114.918ZM778.863 80.275C780.748 79.467 782.97 78.3897 785.529 77.043C788.087 75.629 790.579 74.013 793.003 72.195C795.427 70.3097 797.447 68.2897 799.063 66.135C800.679 63.913 801.487 61.59 801.487 59.166C801.487 56.8093 800.712 54.7557 799.164 53.005C797.615 51.2543 795.73 49.8067 793.508 48.662C791.353 47.45 789.299 46.5073 787.347 45.834C784.047 49.672 780.849 53.611 777.752 57.651C774.722 61.6237 771.793 65.6973 768.965 69.872C770.783 71.4207 772.5 73.104 774.116 74.922C775.732 76.6727 777.314 78.457 778.863 80.275ZM762.501 84.517C764.453 84.517 766.507 84.2477 768.662 83.709C770.816 83.1703 772.769 82.598 774.52 81.992C773.24 80.4433 771.961 78.962 770.682 77.548C769.402 76.134 767.988 74.821 766.44 73.609C765.295 75.3597 764.15 77.144 763.006 78.962C761.928 80.7127 760.851 82.497 759.774 84.315C760.245 84.3823 760.683 84.4497 761.087 84.517C761.558 84.517 762.029 84.517 762.501 84.517ZM829.439 113.1C827.621 113.1 825.568 112.898 823.278 112.494C820.989 112.157 818.767 111.518 816.612 110.575C814.458 109.7 812.673 108.488 811.259 106.939C809.845 105.39 809.138 103.438 809.138 101.081C809.138 98.9263 809.778 96.8727 811.057 94.92C812.404 92.9673 814.054 91.1493 816.006 89.466C818.026 87.7153 820.08 86.2003 822.167 84.921C824.322 83.5743 826.207 82.497 827.823 81.689C828.362 81.4197 828.968 81.1503 829.641 80.881C830.315 80.6117 830.954 80.477 831.56 80.477C831.695 80.477 831.83 80.5107 831.964 80.578C832.166 80.6453 832.267 80.7463 832.267 80.881C832.267 81.1503 832.065 81.386 831.661 81.588C831.325 81.79 831.055 81.9583 830.853 82.093C829.978 82.497 829.069 82.901 828.126 83.305C827.251 83.6417 826.376 84.0793 825.5 84.618C823.75 85.5607 821.932 86.7727 820.046 88.254C818.161 89.7353 816.579 91.4187 815.299 93.304C814.02 95.122 813.38 97.142 813.38 99.364C813.38 101.855 814.155 103.774 815.703 105.121C817.319 106.535 819.272 107.511 821.561 108.05C823.851 108.656 825.972 108.959 827.924 108.959C830.483 108.959 833.075 108.69 835.701 108.151C838.327 107.612 840.886 106.973 843.377 106.232C845.128 105.693 847.148 104.852 849.437 103.707C851.727 102.63 854.083 101.35 856.507 99.869C858.931 98.3877 861.187 96.738 863.274 94.92C865.362 93.102 867.045 91.183 868.324 89.163C869.604 87.143 870.243 85.0893 870.243 83.002C870.243 80.78 869.536 78.8947 868.122 77.346C866.776 75.7973 865.126 74.4843 863.173 73.407C861.221 72.3297 859.369 71.488 857.618 70.882C856.541 70.4107 855.396 70.0067 854.184 69.67C852.972 69.3333 851.794 68.963 850.649 68.559C849.505 68.2223 848.057 67.7847 846.306 67.246C844.623 66.7073 843.108 65.9667 841.761 65.024C840.482 64.0813 839.741 62.8693 839.539 61.388C839.472 61.186 839.438 60.883 839.438 60.479C839.438 57.853 840.179 55.4963 841.66 53.409C843.209 51.2543 845.195 49.4027 847.619 47.854C850.111 46.238 852.77 44.925 855.598 43.915C858.494 42.8377 861.322 42.0633 864.082 41.592C866.91 41.0533 869.368 40.784 871.455 40.784C873.745 40.784 876.202 41.1207 878.828 41.794C881.454 42.4 883.508 43.6793 884.989 45.632C885.461 44.8913 885.898 44.1507 886.302 43.41C886.706 42.602 886.976 41.794 887.11 40.986C887.178 40.6493 887.279 40.3127 887.413 39.976C887.548 39.572 887.817 39.37 888.221 39.37C888.558 39.37 888.76 39.572 888.827 39.976C888.895 40.3127 888.928 40.582 888.928 40.784C888.928 41.0533 888.76 41.693 888.423 42.703C888.087 43.713 887.716 44.723 887.312 45.733C886.908 46.6757 886.639 47.3153 886.504 47.652C886.841 48.1233 887.211 48.7967 887.615 49.672C888.087 50.5473 888.322 51.288 888.322 51.894C888.322 52.1633 888.255 52.601 888.12 53.207C887.986 53.813 887.75 54.1833 887.413 54.318C887.413 54.318 887.178 53.914 886.706 53.106C886.302 52.298 886.033 51.8267 885.898 51.692C885.292 52.9713 884.686 54.4863 884.08 56.237C883.474 57.9877 882.7 59.4353 881.757 60.58C881.488 60.8493 881.185 61.0177 880.848 61.085C880.579 61.1523 880.276 61.186 879.939 61.186C879.67 61.186 879.199 61.1523 878.525 61.085C877.852 60.9503 877.212 60.782 876.606 60.58C876.068 60.3107 875.798 60.0077 875.798 59.671C875.798 59.3343 876.101 58.6947 876.707 57.752C877.381 56.742 878.155 55.631 879.03 54.419C879.973 53.207 880.848 52.0623 881.656 50.985C882.464 49.9077 883.003 49.0997 883.272 48.561C881.993 46.541 880.175 45.1607 877.818 44.42C875.462 43.6793 873.139 43.309 870.849 43.309C867.887 43.309 864.823 43.7803 861.658 44.723C860.177 45.127 858.494 45.733 856.608 46.541C854.723 47.349 852.871 48.359 851.053 49.571C849.303 50.7157 847.821 52.0623 846.609 53.611C845.465 55.1597 844.892 56.843 844.892 58.661C844.892 60.1423 845.364 61.4553 846.306 62.6C847.316 63.6773 848.562 64.5863 850.043 65.327C851.592 66.0677 853.141 66.7073 854.689 67.246C856.238 67.7173 857.551 68.1213 858.628 68.458C860.312 68.9967 862.231 69.7037 864.385 70.579C866.54 71.4543 868.594 72.5317 870.546 73.811C872.566 75.0903 874.216 76.5717 875.495 78.255C876.775 79.9383 877.414 81.891 877.414 84.113C877.414 86.335 876.741 88.5233 875.394 90.678C874.048 92.7653 872.297 94.7517 870.142 96.637C867.988 98.5223 865.665 100.273 863.173 101.889C860.682 103.438 858.224 104.784 855.8 105.929C853.444 107.141 851.39 108.117 849.639 108.858C846.475 110.137 843.175 111.147 839.741 111.888C836.375 112.696 832.941 113.1 829.439 113.1Z" fill="#FF6100"/>
<path d="M919.528 93.396C917.68 93.396 916.066 93.1027 914.688 92.516C913.309 91.9293 912.224 91.1227 911.432 90.096C910.669 89.04 910.258 87.808 910.2 86.4H915.7C915.758 87.1627 916.125 87.7787 916.8 88.248C917.504 88.7173 918.413 88.952 919.528 88.952H921.464C922.813 88.952 923.825 88.688 924.5 88.16C925.174 87.632 925.512 86.9133 925.512 86.004C925.512 85.1533 925.204 84.4933 924.588 84.024C924.001 83.5253 923.077 83.2027 921.816 83.056L918.824 82.616C916.066 82.2347 914.042 81.5013 912.752 80.416C911.461 79.3307 910.816 77.7027 910.816 75.532C910.816 73.2733 911.578 71.528 913.104 70.296C914.629 69.0347 916.873 68.404 919.836 68.404H921.508C924.206 68.404 926.362 69.0053 927.976 70.208C929.589 71.4107 930.454 73.024 930.572 75.048H925.072C924.984 74.4027 924.617 73.8747 923.972 73.464C923.356 73.0533 922.534 72.848 921.508 72.848H919.836C918.574 72.848 917.65 73.0827 917.064 73.552C916.506 73.992 916.228 74.652 916.228 75.532C916.228 76.3533 916.477 76.9693 916.976 77.38C917.474 77.7613 918.281 78.04 919.396 78.216L922.52 78.656C925.394 79.0667 927.506 79.844 928.856 80.988C930.234 82.1027 930.924 83.76 930.924 85.96C930.924 88.3067 930.117 90.14 928.504 91.46C926.92 92.7507 924.573 93.396 921.464 93.396H919.528ZM952.114 93C949.797 93 947.978 92.3547 946.658 91.064C945.368 89.7733 944.722 87.9987 944.722 85.74V73.772H938.166V68.8H944.722V61.98H950.266V68.8H959.55V73.772H950.266V85.74C950.266 87.2653 951.014 88.028 952.51 88.028H959.11V93H952.114ZM978.497 93.44C975.417 93.44 972.997 92.5893 971.237 90.888C969.477 89.1573 968.597 86.8107 968.597 83.848V68.8H974.097V83.804C974.097 85.3587 974.479 86.5613 975.241 87.412C976.004 88.2333 977.089 88.644 978.497 88.644C979.876 88.644 980.947 88.2333 981.709 87.412C982.501 86.5613 982.897 85.3587 982.897 83.804V68.8H988.397V83.848C988.397 86.8107 987.503 89.1573 985.713 90.888C983.924 92.5893 981.519 93.44 978.497 93.44ZM1005.45 93.44C1003.05 93.44 1001.1 92.604 999.6 90.932C998.133 89.26 997.4 87.016 997.4 84.2V77.644C997.4 74.7987 998.133 72.54 999.6 70.868C1001.07 69.196 1003.02 68.36 1005.45 68.36C1007.45 68.36 1009.03 68.932 1010.2 70.076C1011.38 71.1907 1011.96 72.7307 1011.96 74.696L1010.73 73.42H1012.01L1011.83 67.656V60.88H1017.33V93H1011.96V88.38H1010.73L1011.96 87.104C1011.96 89.0693 1011.38 90.624 1010.2 91.768C1009.03 92.8827 1007.45 93.44 1005.45 93.44ZM1007.39 88.688C1008.8 88.688 1009.88 88.2773 1010.64 87.456C1011.44 86.6053 1011.83 85.432 1011.83 83.936V77.864C1011.83 76.368 1011.44 75.2093 1010.64 74.388C1009.88 73.5373 1008.8 73.112 1007.39 73.112C1005.98 73.112 1004.88 73.5227 1004.09 74.344C1003.3 75.1653 1002.9 76.3387 1002.9 77.864V83.936C1002.9 85.4613 1003.3 86.6347 1004.09 87.456C1004.88 88.2773 1005.98 88.688 1007.39 88.688ZM1026.69 93V87.984H1035.13V73.772H1027.79V68.8H1040.41V87.984H1047.89V93H1026.69ZM1037.33 64.752C1036.22 64.752 1035.34 64.4733 1034.69 63.916C1034.05 63.3293 1033.73 62.552 1033.73 61.584C1033.73 60.616 1034.05 59.8533 1034.69 59.296C1035.34 58.7093 1036.22 58.416 1037.33 58.416C1038.45 58.416 1039.33 58.7093 1039.97 59.296C1040.62 59.8533 1040.94 60.616 1040.94 61.584C1040.94 62.552 1040.62 63.3293 1039.97 63.916C1039.33 64.4733 1038.45 64.752 1037.33 64.752ZM1065.57 93.396C1063.51 93.396 1061.72 93.0147 1060.2 92.252C1058.7 91.46 1057.53 90.36 1056.68 88.952C1055.86 87.5147 1055.45 85.828 1055.45 83.892V77.908C1055.45 75.972 1055.86 74.3 1056.68 72.892C1057.53 71.4547 1058.7 70.3547 1060.2 69.592C1061.72 68.8 1063.51 68.404 1065.57 68.404C1067.65 68.404 1069.44 68.8 1070.93 69.592C1072.43 70.3547 1073.59 71.4547 1074.41 72.892C1075.26 74.3 1075.69 75.9573 1075.69 77.864V83.892C1075.69 85.828 1075.26 87.5147 1074.41 88.952C1073.59 90.36 1072.43 91.46 1070.93 92.252C1069.44 93.0147 1067.65 93.396 1065.57 93.396ZM1065.57 88.6C1067.03 88.6 1068.16 88.204 1068.95 87.412C1069.77 86.5907 1070.19 85.4173 1070.19 83.892V77.908C1070.19 76.3533 1069.77 75.18 1068.95 74.388C1068.16 73.596 1067.03 73.2 1065.57 73.2C1064.13 73.2 1063 73.596 1062.18 74.388C1061.36 75.18 1060.95 76.3533 1060.95 77.908V83.892C1060.95 85.4173 1061.36 86.5907 1062.18 87.412C1063 88.204 1064.13 88.6 1065.57 88.6Z" fill="white"/>
<path d="M855.838 103.848L855.414 103.227L855.164 103.398L855.037 103.211L855.286 103.041L855.193 102.903C855.138 102.824 855.122 102.743 855.142 102.659C855.163 102.576 855.216 102.505 855.303 102.445L855.569 102.264L855.693 102.445L855.432 102.623C855.406 102.642 855.39 102.664 855.384 102.691C855.378 102.715 855.384 102.741 855.401 102.766L855.493 102.9L855.841 102.662L855.969 102.848L855.62 103.086L856.044 103.707L855.838 103.848ZM856.744 103.23L856.124 102.321L856.318 102.188L856.437 102.362L856.488 102.327L856.499 102.474C856.432 102.376 856.404 102.287 856.414 102.208C856.424 102.128 856.472 102.059 856.558 102C856.656 101.933 856.754 101.911 856.851 101.933C856.949 101.955 857.034 102.02 857.107 102.127L857.152 102.193L856.936 102.341L856.901 102.289C856.861 102.231 856.815 102.196 856.762 102.185C856.711 102.174 856.658 102.186 856.606 102.222C856.552 102.259 856.521 102.303 856.513 102.356C856.506 102.407 856.522 102.462 856.562 102.52L856.95 103.089L856.744 103.23ZM858.186 102.269C858.109 102.322 858.032 102.353 857.954 102.362C857.877 102.371 857.804 102.36 857.736 102.329C857.668 102.296 857.61 102.244 857.561 102.173L857.406 101.945C857.357 101.873 857.33 101.8 857.325 101.726C857.32 101.651 857.336 101.578 857.373 101.51C857.41 101.441 857.467 101.38 857.544 101.327C857.62 101.276 857.696 101.245 857.772 101.237C857.85 101.227 857.923 101.239 857.99 101.272C858.058 101.303 858.117 101.354 858.166 101.426L858.277 101.589L857.717 101.972L857.761 102.036C857.805 102.1 857.853 102.138 857.907 102.15C857.959 102.161 858.016 102.146 858.076 102.104C858.123 102.073 858.155 102.039 858.173 102.004C858.19 101.968 858.192 101.932 858.179 101.896L858.382 101.758C858.42 101.846 858.421 101.938 858.385 102.032C858.35 102.124 858.283 102.203 858.186 102.269ZM857.998 101.61L857.965 101.561C857.922 101.498 857.874 101.46 857.822 101.447C857.769 101.434 857.713 101.447 857.653 101.488C857.594 101.528 857.56 101.576 857.553 101.631C857.545 101.686 857.563 101.745 857.606 101.808L857.629 101.843L858.002 101.584L857.998 101.61ZM859.276 101.525C859.199 101.578 859.122 101.609 859.044 101.618C858.966 101.627 858.894 101.617 858.826 101.586C858.758 101.553 858.7 101.5 858.651 101.429L858.495 101.201C858.446 101.129 858.419 101.057 858.414 100.983C858.409 100.907 858.425 100.835 858.462 100.766C858.499 100.697 858.556 100.636 858.633 100.584C858.709 100.532 858.785 100.501 858.862 100.493C858.939 100.484 859.012 100.495 859.08 100.528C859.148 100.559 859.206 100.611 859.255 100.682L859.367 100.846L858.807 101.228L858.851 101.292C858.894 101.356 858.943 101.394 858.996 101.406C859.049 101.417 859.105 101.402 859.166 101.36C859.212 101.329 859.244 101.296 859.263 101.261C859.28 101.225 859.282 101.189 859.269 101.152L859.472 101.014C859.51 101.102 859.511 101.194 859.475 101.288C859.439 101.38 859.373 101.459 859.276 101.525ZM859.088 100.866L859.054 100.817C859.011 100.754 858.964 100.716 858.911 100.704C858.858 100.69 858.802 100.703 858.743 100.744C858.683 100.784 858.65 100.832 858.642 100.887C858.635 100.943 858.652 101.002 858.695 101.064L858.719 101.099L859.091 100.84L859.088 100.866ZM861.455 100.037C861.378 100.09 861.301 100.121 861.223 100.13C861.146 100.14 861.073 100.129 861.005 100.098C860.937 100.065 860.879 100.013 860.83 99.9412L860.674 99.7132C860.625 99.6416 860.598 99.5689 860.593 99.495C860.588 99.4192 860.604 99.3469 860.641 99.2781C860.678 99.2093 860.735 99.1486 860.812 99.096C860.888 99.0441 860.964 99.0138 861.041 99.0052C861.118 98.9959 861.191 99.0076 861.259 99.0406C861.327 99.0716 861.385 99.1229 861.434 99.1945L861.546 99.358L860.986 99.7403L861.03 99.8047C861.073 99.8686 861.122 99.9065 861.175 99.9185C861.228 99.9294 861.284 99.9142 861.345 99.8728C861.391 99.8412 861.423 99.808 861.442 99.773C861.459 99.7369 861.461 99.7009 861.448 99.6648L861.651 99.5261C861.689 99.6148 861.69 99.7061 861.654 99.8001C861.618 99.8922 861.552 99.9713 861.455 100.037ZM861.267 99.3788L861.233 99.3293C861.19 99.2665 861.143 99.2288 861.09 99.216C861.037 99.2022 860.981 99.2156 860.922 99.2562C860.862 99.2968 860.829 99.3447 860.821 99.3998C860.814 99.455 860.831 99.514 860.874 99.5768L860.898 99.6115L861.271 99.3522L861.267 99.3788ZM862.548 99.2914C862.471 99.344 862.393 99.3759 862.315 99.3871C862.238 99.3965 862.165 99.3857 862.097 99.3546C862.028 99.3224 861.969 99.27 861.919 99.1974L861.764 98.9694C861.713 98.8956 861.686 98.8214 861.682 98.7468C861.678 98.6721 861.695 98.6009 861.732 98.5332C861.77 98.4636 861.828 98.4025 861.905 98.3499C862.02 98.2717 862.131 98.239 862.24 98.2519C862.348 98.2636 862.439 98.319 862.511 98.4181L862.305 98.559C862.269 98.514 862.227 98.4893 862.179 98.485C862.131 98.4789 862.081 98.4938 862.028 98.5299C861.973 98.5675 861.94 98.6126 861.929 98.6653C861.917 98.7168 861.931 98.7706 861.969 98.8268L862.126 99.0564C862.164 99.1126 862.21 99.1452 862.263 99.1542C862.316 99.1632 862.37 99.1489 862.425 99.1113C862.478 99.0753 862.51 99.0344 862.523 98.9888C862.536 98.9413 862.528 98.8928 862.499 98.8432L862.705 98.7022C862.771 98.8058 862.79 98.9106 862.762 99.0167C862.734 99.1216 862.662 99.2132 862.548 99.2914ZM863.631 98.5493C863.554 98.6019 863.477 98.6335 863.4 98.6439C863.324 98.6525 863.252 98.6413 863.184 98.6103C863.116 98.5774 863.057 98.5246 863.008 98.4519L862.854 98.2272C862.805 98.1546 862.777 98.0813 862.772 98.0074C862.767 97.9316 862.783 97.8602 862.82 97.7933C862.857 97.7244 862.914 97.6637 862.991 97.6111C863.069 97.5577 863.146 97.5267 863.223 97.5181C863.298 97.5084 863.37 97.52 863.438 97.5529C863.506 97.584 863.564 97.6353 863.613 97.7069L863.768 97.9332C863.817 98.0058 863.845 98.0801 863.849 98.1558C863.855 98.2297 863.839 98.3007 863.804 98.3688C863.767 98.4358 863.709 98.4959 863.631 98.5493ZM863.508 98.3693C863.563 98.3317 863.596 98.2879 863.605 98.2378C863.615 98.1859 863.6 98.1314 863.561 98.0741L863.408 97.8495C863.368 97.7911 863.322 97.7576 863.271 97.7489C863.221 97.7395 863.169 97.7535 863.114 97.7911C863.06 97.828 863.028 97.8718 863.017 97.9226C863.006 97.9733 863.021 98.0279 863.061 98.0863L863.214 98.3109C863.253 98.3682 863.299 98.4017 863.351 98.4115C863.402 98.4202 863.454 98.4061 863.508 98.3693ZM864.342 98.0421L863.722 97.1336L863.924 96.996L864.042 97.1695L864.098 97.1311L864.075 97.2174C864.024 97.1425 864.005 97.0695 864.02 96.9983C864.035 96.9264 864.081 96.8645 864.157 96.8126C864.246 96.7517 864.337 96.733 864.431 96.7563C864.525 96.779 864.607 96.8404 864.675 96.9406L865.082 97.5369L864.876 97.6778L864.483 97.103C864.446 97.048 864.403 97.0153 864.354 97.0052C864.305 96.995 864.254 97.0076 864.203 97.0429C864.152 97.0775 864.122 97.1203 864.114 97.1715C864.106 97.2218 864.122 97.2757 864.161 97.3329L864.549 97.9011L864.342 98.0421ZM865.81 97.0617C865.733 97.1143 865.656 97.1458 865.58 97.1563C865.503 97.1649 865.431 97.1537 865.363 97.1226C865.295 97.0897 865.236 97.0369 865.187 96.9642L865.034 96.7396C864.984 96.6669 864.956 96.5936 864.951 96.5197C864.946 96.444 864.962 96.3726 864.999 96.3056C865.036 96.2368 865.093 96.1761 865.17 96.1235C865.248 96.0701 865.325 96.0391 865.402 96.0305C865.478 96.0208 865.549 96.0324 865.617 96.0653C865.685 96.0963 865.743 96.1476 865.792 96.2192L865.947 96.4455C865.996 96.5182 866.024 96.5924 866.028 96.6682C866.034 96.7421 866.018 96.8131 865.983 96.8811C865.946 96.9481 865.889 97.0083 865.81 97.0617ZM865.687 96.8816C865.743 96.844 865.775 96.8002 865.784 96.7502C865.794 96.6983 865.779 96.6437 865.74 96.5865L865.587 96.3618C865.547 96.3035 865.502 96.2699 865.45 96.2613C865.4 96.2518 865.348 96.2659 865.293 96.3035C865.239 96.3403 865.207 96.3841 865.196 96.4349C865.185 96.4857 865.2 96.5403 865.24 96.5986L865.393 96.8233C865.432 96.8805 865.478 96.9141 865.53 96.9238C865.581 96.9325 865.633 96.9185 865.687 96.8816ZM866.48 96.5826L865.86 95.6742L866.028 95.5591L866.112 95.6814L866.146 95.6577L866.139 95.7066C866.104 95.6559 866.091 95.6054 866.098 95.555C866.106 95.5047 866.132 95.4641 866.177 95.4332C866.226 95.4002 866.277 95.3944 866.33 95.416C866.385 95.4369 866.435 95.4809 866.481 95.548L866.389 95.4919L866.445 95.4536L866.444 95.498C866.41 95.4473 866.396 95.3968 866.404 95.3464C866.411 95.296 866.439 95.2547 866.486 95.2224C866.542 95.184 866.601 95.1745 866.663 95.1938C866.724 95.2131 866.78 95.2585 866.829 95.3301L867.301 96.0222L867.119 96.1462L866.652 95.4624C866.632 95.4327 866.61 95.414 866.585 95.4066C866.56 95.398 866.535 95.4023 866.509 95.4196C866.485 95.4361 866.472 95.4575 866.469 95.4838C866.467 95.5094 866.476 95.5376 866.497 95.5684L866.964 96.2522L866.815 96.3537L866.349 95.6699C866.328 95.6391 866.305 95.6199 866.28 95.6124C866.256 95.6049 866.231 95.6098 866.206 95.6271C866.18 95.6444 866.167 95.6658 866.165 95.6913C866.164 95.7161 866.174 95.7439 866.195 95.7748L866.662 96.4586L866.48 96.5826ZM867.961 96.0076L867.851 95.5739L866.926 94.9461L867.153 94.7916L867.638 95.1408C867.664 95.1601 867.694 95.1849 867.728 95.2152C867.76 95.2444 867.787 95.2691 867.807 95.2892C867.797 95.2623 867.784 95.2283 867.769 95.187C867.753 95.1447 867.741 95.1078 867.732 95.0765L867.574 94.5041L867.792 94.3552L868.177 95.8599L867.961 96.0076Z" fill="white"/>
<path d="M14.7583 99.48C12.6463 99.48 10.8063 99.08 9.23826 98.28C7.70226 97.48 6.50226 96.328 5.63826 94.824C4.80626 93.288 4.39026 91.48 4.39026 89.4V73.56C4.39026 71.448 4.80626 69.64 5.63826 68.136C6.50226 66.632 7.70226 65.48 9.23826 64.68C10.8063 63.88 12.6463 63.48 14.7583 63.48C16.8703 63.48 18.6943 63.896 20.2303 64.728C21.7663 65.528 22.9503 66.68 23.7823 68.184C24.6143 69.688 25.0303 71.48 25.0303 73.56H20.7103C20.7103 71.576 20.1823 70.056 19.1263 69C18.1023 67.912 16.6463 67.368 14.7583 67.368C12.8703 67.368 11.3823 67.896 10.2943 68.952C9.23826 70.008 8.71026 71.528 8.71026 73.512V89.4C8.71026 91.384 9.23826 92.92 10.2943 94.008C11.3823 95.064 12.8703 95.592 14.7583 95.592C16.6463 95.592 18.1023 95.064 19.1263 94.008C20.1823 92.92 20.7103 91.384 20.7103 89.4H25.0303C25.0303 91.448 24.6143 93.24 23.7823 94.776C22.9503 96.28 21.7663 97.448 20.2303 98.28C18.6943 99.08 16.8703 99.48 14.7583 99.48ZM46.2275 99.48C44.1155 99.48 42.2915 99.08 40.7555 98.28C39.2515 97.48 38.0835 96.328 37.2515 94.824C36.4515 93.288 36.0515 91.48 36.0515 89.4V73.56C36.0515 71.448 36.4515 69.64 37.2515 68.136C38.0835 66.632 39.2515 65.48 40.7555 64.68C42.2915 63.88 44.1155 63.48 46.2275 63.48C48.3395 63.48 50.1475 63.88 51.6515 64.68C53.1875 65.48 54.3555 66.632 55.1555 68.136C55.9875 69.64 56.4035 71.432 56.4035 73.512V89.4C56.4035 91.48 55.9875 93.288 55.1555 94.824C54.3555 96.328 53.1875 97.48 51.6515 98.28C50.1475 99.08 48.3395 99.48 46.2275 99.48ZM46.2275 95.592C48.1155 95.592 49.5555 95.064 50.5475 94.008C51.5715 92.92 52.0835 91.384 52.0835 89.4V73.56C52.0835 71.576 51.5715 70.056 50.5475 69C49.5555 67.912 48.1155 67.368 46.2275 67.368C44.3715 67.368 42.9315 67.912 41.9075 69C40.8835 70.056 40.3715 71.576 40.3715 73.56V89.4C40.3715 91.384 40.8835 92.92 41.9075 94.008C42.9315 95.064 44.3715 95.592 46.2275 95.592ZM67.9048 99V63.96H79.1848C81.3608 63.96 83.2488 64.392 84.8488 65.256C86.4488 66.088 87.6808 67.272 88.5448 68.808C89.4408 70.344 89.8888 72.168 89.8888 74.28C89.8888 76.36 89.4408 78.184 88.5448 79.752C87.6808 81.288 86.4488 82.488 84.8488 83.352C83.2488 84.184 81.3608 84.6 79.1848 84.6H72.2248V99H67.9048ZM72.2248 80.712H79.1848C81.0728 80.712 82.5768 80.136 83.6968 78.984C84.8488 77.8 85.4248 76.232 85.4248 74.28C85.4248 72.296 84.8488 70.728 83.6968 69.576C82.5768 68.424 81.0728 67.848 79.1848 67.848H72.2248V80.712ZM107.39 99V85.896L96.83 63.96H101.294L108.254 78.36C108.638 79.16 108.942 79.848 109.166 80.424C109.39 80.968 109.534 81.368 109.598 81.624C109.662 81.368 109.806 80.968 110.03 80.424C110.286 79.848 110.606 79.16 110.99 78.36L117.806 63.96H122.27L111.71 85.896V99H107.39ZM131.227 99V63.96H142.075C144.155 63.96 145.979 64.392 147.547 65.256C149.115 66.088 150.331 67.256 151.195 68.76C152.059 70.264 152.491 72.024 152.491 74.04C152.491 76.408 151.867 78.44 150.619 80.136C149.403 81.832 147.739 83 145.627 83.64L152.971 99H147.883L141.163 84.12H135.547V99H131.227ZM135.547 80.232H142.075C143.867 80.232 145.307 79.672 146.395 78.552C147.483 77.4 148.027 75.896 148.027 74.04C148.027 72.152 147.483 70.648 146.395 69.528C145.307 68.408 143.867 67.848 142.075 67.848H135.547V80.232ZM163.513 99V95.064H170.665V67.896H163.513V63.96H182.233V67.896H175.081V95.064H182.233V99H163.513ZM204.726 99.48C202.614 99.48 200.774 99.08 199.206 98.28C197.67 97.48 196.47 96.328 195.606 94.824C194.774 93.288 194.358 91.48 194.358 89.4V73.56C194.358 71.448 194.774 69.64 195.606 68.136C196.47 66.632 197.67 65.48 199.206 64.68C200.774 63.88 202.614 63.48 204.726 63.48C206.838 63.48 208.662 63.896 210.198 64.728C211.734 65.528 212.918 66.68 213.75 68.184C214.582 69.688 214.998 71.48 214.998 73.56H210.678C210.678 71.576 210.15 70.056 209.094 69C208.07 67.912 206.614 67.368 204.726 67.368C202.838 67.368 201.35 67.896 200.262 68.952C199.206 70.008 198.678 71.528 198.678 73.512V89.4C198.678 91.384 199.206 92.92 200.262 94.008C201.35 95.096 202.838 95.64 204.726 95.64C206.614 95.64 208.07 95.096 209.094 94.008C210.15 92.92 210.678 91.384 210.678 89.4V85.08H203.574V81.144H214.998V89.4C214.998 91.448 214.582 93.24 213.75 94.776C212.918 96.28 211.734 97.448 210.198 98.28C208.662 99.08 206.838 99.48 204.726 99.48ZM226.259 99V63.96H230.579V78.936H241.811V63.96H246.131V99H241.811V82.872H230.579V99H226.259ZM265.696 99V67.848H256.096V63.912H279.616V67.848H270.016V99H265.696ZM331.179 93.72C328.747 93.72 326.603 93.24 324.747 92.28C322.923 91.32 321.499 89.976 320.475 88.248C319.451 86.52 318.939 84.504 318.939 82.2V75C318.939 72.696 319.451 70.68 320.475 68.952C321.499 67.224 322.923 65.88 324.747 64.92C326.603 63.96 328.747 63.48 331.179 63.48C333.643 63.48 335.787 63.96 337.611 64.92C339.435 65.88 340.859 67.224 341.883 68.952C342.907 70.68 343.419 72.696 343.419 75V82.2C343.419 84.504 342.907 86.52 341.883 88.248C340.859 89.976 339.435 91.32 337.611 92.28C335.787 93.24 333.643 93.72 331.179 93.72ZM331.179 91.32C333.099 91.32 334.779 90.952 336.219 90.216C337.659 89.448 338.779 88.376 339.579 87C340.379 85.624 340.779 84.024 340.779 82.2V75C340.779 73.176 340.379 71.592 339.579 70.248C338.779 68.872 337.659 67.8 336.219 67.032C334.779 66.264 333.099 65.88 331.179 65.88C329.259 65.88 327.579 66.264 326.139 67.032C324.699 67.8 323.579 68.872 322.779 70.248C321.979 71.592 321.579 73.176 321.579 75V82.2C321.579 84.024 321.979 85.624 322.779 87C323.579 88.376 324.699 89.448 326.139 90.216C327.579 90.952 329.259 91.32 331.179 91.32ZM331.419 87.24C329.627 87.24 328.171 86.744 327.051 85.752C325.963 84.728 325.419 83.384 325.419 81.72V75.48C325.419 73.816 325.963 72.488 327.051 71.496C328.171 70.472 329.627 69.96 331.419 69.96C333.211 69.96 334.651 70.472 335.739 71.496C336.827 72.488 337.371 73.816 337.371 75.48H334.251C334.251 74.616 333.979 73.928 333.435 73.416C332.923 72.872 332.251 72.6 331.419 72.6C330.555 72.6 329.851 72.872 329.307 73.416C328.795 73.928 328.539 74.616 328.539 75.48V81.72C328.539 82.584 328.795 83.288 329.307 83.832C329.851 84.344 330.555 84.6 331.419 84.6C332.251 84.6 332.923 84.344 333.435 83.832C333.979 83.288 334.251 82.584 334.251 81.72H337.371C337.371 83.384 336.827 84.728 335.739 85.752C334.651 86.744 333.211 87.24 331.419 87.24ZM394.693 99.48C392.581 99.48 390.741 99.08 389.173 98.28C387.637 97.48 386.437 96.328 385.573 94.824C384.741 93.288 384.325 91.48 384.325 89.4V73.56C384.325 71.448 384.741 69.64 385.573 68.136C386.437 66.632 387.637 65.48 389.173 64.68C390.741 63.88 392.581 63.48 394.693 63.48C396.805 63.48 398.629 63.896 400.165 64.728C401.701 65.528 402.885 66.68 403.717 68.184C404.549 69.688 404.965 71.48 404.965 73.56H400.645C400.645 71.576 400.117 70.056 399.061 69C398.037 67.912 396.581 67.368 394.693 67.368C392.805 67.368 391.317 67.896 390.229 68.952C389.173 70.008 388.645 71.528 388.645 73.512V89.4C388.645 91.384 389.173 92.92 390.229 94.008C391.317 95.064 392.805 95.592 394.693 95.592C396.581 95.592 398.037 95.064 399.061 94.008C400.117 92.92 400.645 91.384 400.645 89.4H404.965C404.965 91.448 404.549 93.24 403.717 94.776C402.885 96.28 401.701 97.448 400.165 98.28C398.629 99.08 396.805 99.48 394.693 99.48ZM417.091 99V72.6H421.315V77.64H422.323L420.931 80.76C420.931 77.912 421.539 75.768 422.755 74.328C424.003 72.856 425.843 72.12 428.275 72.12C431.059 72.12 433.267 73 434.899 74.76C436.563 76.488 437.395 78.84 437.395 81.816V83.4H433.075V82.2C433.075 80.12 432.563 78.536 431.539 77.448C430.547 76.328 429.123 75.768 427.267 75.768C425.443 75.768 424.003 76.328 422.947 77.448C421.923 78.568 421.411 80.152 421.411 82.2V99H417.091ZM455.52 99.48C452.736 99.48 450.544 98.776 448.944 97.368C447.344 95.928 446.544 93.992 446.544 91.56C446.544 89.096 447.344 87.16 448.944 85.752C450.544 84.344 452.704 83.64 455.424 83.64H463.584V81C463.584 79.368 463.088 78.12 462.096 77.256C461.136 76.36 459.76 75.912 457.968 75.912C456.4 75.912 455.088 76.248 454.032 76.92C452.976 77.56 452.368 78.44 452.208 79.56H447.888C448.176 77.288 449.248 75.48 451.104 74.136C452.96 72.792 455.28 72.12 458.064 72.12C461.104 72.12 463.504 72.904 465.264 74.472C467.024 76.04 467.904 78.168 467.904 80.856V99H463.68V93.96H462.96L463.68 93.24C463.68 95.16 462.928 96.68 461.424 97.8C459.952 98.92 457.984 99.48 455.52 99.48ZM456.576 96.072C458.624 96.072 460.304 95.56 461.616 94.536C462.928 93.512 463.584 92.2 463.584 90.6V86.856H455.52C454.08 86.856 452.944 87.256 452.112 88.056C451.28 88.856 450.864 89.944 450.864 91.32C450.864 92.792 451.36 93.96 452.352 94.824C453.376 95.656 454.784 96.072 456.576 96.072ZM485.645 99V79.176H477.965V75.24H485.645V70.68C485.645 68.6 486.301 66.968 487.613 65.784C488.925 64.568 490.733 63.96 493.037 63.96H500.765V67.896H493.037C492.045 67.896 491.277 68.136 490.733 68.616C490.221 69.064 489.965 69.752 489.965 70.68V75.24H500.765V79.176H489.965V99H485.645ZM524.026 99C521.754 99 519.978 98.392 518.698 97.176C517.45 95.96 516.826 94.248 516.826 92.04V76.536H509.386V72.6H516.826V65.16H521.146V72.6H531.706V76.536H521.146V92.04C521.146 94.056 522.106 95.064 524.026 95.064H531.226V99H524.026ZM552.808 99.48C550.728 99.48 548.904 99.064 547.336 98.232C545.8 97.4 544.6 96.232 543.736 94.728C542.904 93.192 542.488 91.416 542.488 89.4V82.2C542.488 80.152 542.904 78.376 543.736 76.872C544.6 75.368 545.8 74.2 547.336 73.368C548.904 72.536 550.728 72.12 552.808 72.12C554.888 72.12 556.696 72.536 558.232 73.368C559.8 74.2 561 75.368 561.832 76.872C562.696 78.376 563.128 80.152 563.128 82.2V86.856H546.712V89.4C546.712 91.48 547.24 93.08 548.296 94.2C549.352 95.288 550.856 95.832 552.808 95.832C554.472 95.832 555.816 95.544 556.84 94.968C557.864 94.36 558.488 93.464 558.712 92.28H563.032C562.744 94.488 561.656 96.248 559.768 97.56C557.912 98.84 555.592 99.48 552.808 99.48ZM558.904 83.976V82.2C558.904 80.12 558.376 78.52 557.32 77.4C556.296 76.28 554.792 75.72 552.808 75.72C550.856 75.72 549.352 76.28 548.296 77.4C547.24 78.52 546.712 80.12 546.712 82.2V83.592H559.24L558.904 83.976ZM582.933 99.48C580.309 99.48 578.181 98.6 576.549 96.84C574.949 95.08 574.149 92.696 574.149 89.688V81.96C574.149 78.92 574.949 76.52 576.549 74.76C578.149 73 580.277 72.12 582.933 72.12C585.109 72.12 586.853 72.712 588.165 73.896C589.477 75.08 590.133 76.664 590.133 78.648L589.269 77.64H590.229L590.133 71.64V63.96H594.453V99H590.133V93.96H589.269L590.133 92.952C590.133 94.968 589.477 96.568 588.165 97.752C586.853 98.904 585.109 99.48 582.933 99.48ZM584.373 95.736C586.165 95.736 587.573 95.176 588.597 94.056C589.621 92.936 590.133 91.384 590.133 89.4V82.2C590.133 80.216 589.621 78.664 588.597 77.544C587.573 76.424 586.165 75.864 584.373 75.864C582.549 75.864 581.109 76.408 580.053 77.496C578.997 78.584 578.469 80.152 578.469 82.2V89.4C578.469 91.448 578.997 93.016 580.053 94.104C581.109 95.192 582.549 95.736 584.373 95.736ZM649.327 99.48C647.151 99.48 645.407 98.904 644.095 97.752C642.783 96.568 642.127 94.968 642.127 92.952L642.991 93.96H642.127V99H637.807V63.96H642.127V71.64L642.031 77.64H642.991L642.127 78.648C642.127 76.664 642.783 75.08 644.095 73.896C645.439 72.712 647.183 72.12 649.327 72.12C651.983 72.12 654.111 73 655.711 74.76C657.311 76.52 658.111 78.92 658.111 81.96V89.688C658.111 92.696 657.311 95.08 655.711 96.84C654.111 98.6 651.983 99.48 649.327 99.48ZM647.887 95.736C649.711 95.736 651.151 95.192 652.207 94.104C653.263 93.016 653.791 91.448 653.791 89.4V82.2C653.791 80.152 653.263 78.584 652.207 77.496C651.151 76.408 649.711 75.864 647.887 75.864C646.127 75.864 644.719 76.424 643.663 77.544C642.639 78.664 642.127 80.216 642.127 82.2V89.4C642.127 91.384 642.639 92.936 643.663 94.056C644.719 95.176 646.127 95.736 647.887 95.736ZM673.596 107.64L677.484 97.368L667.692 72.6H672.492L678.636 88.92C678.86 89.464 679.068 90.12 679.26 90.888C679.452 91.624 679.612 92.248 679.74 92.76C679.868 92.248 680.028 91.624 680.22 90.888C680.412 90.12 680.604 89.464 680.796 88.92L686.556 72.6H691.212L678.204 107.64H673.596Z" fill="white"/>
</svg>
