<?xml version="1.0" standalone="no"?>
<!DOCTYPE svg PUBLIC "-//W3C//DTD SVG 20010904//EN"
 "http://www.w3.org/TR/2001/REC-SVG-20010904/DTD/svg10.dtd">
<svg version="1.0" xmlns="http://www.w3.org/2000/svg"
 width="1032.000000pt" height="1032.000000pt" viewBox="0 0 1032.000000 1032.000000"
 preserveAspectRatio="xMidYMid meet">
<metadata>
Created by potrace 1.14, written by Peter Selinger 2001-2017
</metadata>
<g transform="translate(0.000000,1032.000000) scale(0.100000,-0.100000)"
fill="#000000" stroke="none">
<path d="M4865 9251 c-22 -4 -55 -6 -72 -5 -18 0 -33 -4 -33 -8 0 -5 -8 -4
-19 1 -10 6 -21 8 -24 5 -3 -3 -22 -7 -43 -10 -45 -5 -106 -12 -229 -28 -22
-3 -51 -8 -65 -11 -14 -3 -38 -7 -55 -10 -28 -4 -205 -40 -250 -50 -58 -14
-235 -61 -260 -69 -5 -2 -17 -5 -25 -8 -79 -25 -312 -103 -335 -113 -16 -7
-50 -20 -75 -30 -68 -28 -127 -54 -210 -93 -41 -20 -81 -37 -89 -38 -8 -2 -18
-9 -22 -16 -5 -7 -9 -10 -9 -6 0 6 -83 -37 -230 -119 -25 -14 -48 -30 -51 -35
-3 -5 -8 -8 -10 -7 -5 3 -98 -50 -116 -66 -6 -5 -34 -23 -62 -40 -28 -16 -51
-33 -51 -37 0 -5 -6 -8 -13 -8 -7 0 -22 -8 -33 -17 -10 -10 -39 -31 -63 -48
-54 -37 -288 -225 -355 -285 -53 -48 -294 -290 -336 -337 -55 -62 -199 -241
-236 -293 -21 -30 -41 -57 -44 -60 -20 -19 -58 -79 -53 -84 4 -3 2 -6 -3 -6
-5 0 -18 -16 -28 -35 -11 -19 -23 -35 -28 -35 -5 0 -6 -4 -3 -10 3 -5 1 -10
-4 -10 -6 0 -11 -7 -11 -15 0 -8 -4 -15 -10 -15 -5 0 -10 -4 -10 -9 0 -8 -60
-115 -77 -136 -12 -15 -177 -345 -179 -358 -1 -7 -12 -34 -25 -62 -12 -27 -23
-54 -25 -60 -1 -5 -14 -39 -28 -75 -26 -64 -50 -141 -46 -149 1 -2 -3 -7 -8
-10 -6 -4 -12 -18 -14 -31 -2 -14 -6 -29 -10 -35 -5 -8 -55 -196 -74 -280 -15
-65 -31 -146 -39 -200 -3 -22 -7 -50 -9 -61 -3 -12 -8 -48 -11 -80 -4 -33 -9
-68 -11 -79 -4 -20 -14 -164 -18 -266 -1 -30 -6 -61 -10 -67 -4 -7 -3 -12 2
-12 10 0 8 -42 -3 -59 -3 -6 -2 -11 2 -11 10 0 10 -61 0 -76 -3 -6 -3 -14 0
-18 4 -3 8 -37 9 -74 4 -110 25 -330 38 -392 3 -14 7 -45 10 -70 2 -25 7 -52
10 -60 3 -8 7 -31 10 -51 3 -20 10 -48 15 -62 5 -14 8 -27 5 -30 -2 -2 0 -16
6 -31 5 -15 12 -37 14 -49 3 -12 7 -32 10 -44 4 -13 8 -31 10 -40 2 -10 9 -31
16 -48 6 -16 11 -31 11 -32 -1 -2 0 -5 0 -8 1 -3 3 -9 4 -15 1 -5 4 -12 5 -15
3 -6 3 -6 14 -55 5 -19 11 -39 14 -45 6 -10 19 -44 56 -150 10 -27 29 -74 42
-103 13 -29 24 -56 24 -59 0 -7 147 -301 178 -358 10 -16 42 -71 73 -121 30
-50 58 -98 62 -107 3 -9 11 -17 17 -17 5 0 10 -4 10 -10 0 -5 14 -29 30 -52
17 -24 38 -54 47 -68 16 -23 83 -112 151 -200 15 -18 39 -47 54 -62 16 -16 28
-31 28 -33 0 -15 278 -297 390 -395 40 -36 82 -73 92 -83 10 -9 21 -17 24 -17
4 0 12 -6 18 -14 6 -8 70 -58 141 -111 72 -52 141 -104 155 -115 14 -11 31
-20 38 -20 6 0 12 -4 12 -8 0 -5 19 -19 43 -32 23 -13 56 -33 72 -45 17 -13
50 -34 75 -47 25 -14 79 -45 120 -68 103 -59 331 -171 425 -209 36 -15 74 -31
98 -41 25 -11 136 -52 152 -57 6 -1 51 -17 100 -34 98 -34 206 -67 244 -75 13
-3 32 -9 43 -15 10 -5 18 -8 18 -5 0 3 21 -1 48 -9 26 -7 63 -16 82 -20 39 -6
65 -13 65 -15 0 -1 9 -3 20 -5 11 -2 31 -6 45 -9 14 -4 39 -9 55 -11 17 -3 54
-10 83 -15 29 -5 56 -9 60 -9 4 1 9 0 12 -1 9 -3 34 -7 85 -14 28 -3 64 -8 80
-11 17 -3 57 -7 90 -9 33 -3 60 -5 60 -6 0 -6 211 -13 420 -13 224 -1 344 4
485 18 42 4 66 7 165 19 22 3 56 8 75 11 37 7 47 9 125 20 28 4 54 9 58 12 5
3 23 7 40 9 18 3 59 11 92 19 33 8 71 17 85 19 14 2 25 5 25 6 0 2 36 10 58
12 9 1 17 6 17 11 0 4 5 5 10 2 6 -3 16 -3 23 2 6 4 17 8 22 8 6 1 30 7 55 14
25 7 46 13 48 12 1 -1 18 5 37 13 20 9 37 15 40 16 22 3 250 83 261 91 6 5 19
10 30 13 42 9 64 19 64 29 0 6 3 8 6 4 6 -6 98 32 212 87 40 20 76 36 81 36 5
0 14 7 21 15 7 9 15 14 17 11 2 -2 55 24 116 59 62 34 127 71 146 81 19 11 40
23 45 27 38 28 209 137 216 137 4 0 10 3 12 8 2 4 57 47 123 96 66 49 127 97
136 105 9 9 35 32 59 51 24 19 53 45 66 57 13 13 26 23 29 23 14 0 337 335
401 415 16 21 39 48 51 61 11 12 47 58 79 101 33 43 62 80 66 81 5 2 8 10 8
18 0 8 5 14 10 14 6 0 10 7 10 15 0 8 3 15 8 15 4 0 16 16 26 35 11 19 23 35
28 35 4 0 8 5 8 11 0 6 15 31 32 57 18 26 38 56 44 67 6 11 34 59 62 107 44
75 165 313 167 328 1 3 11 27 24 54 13 28 29 66 36 85 7 20 21 54 30 76 10 22
16 40 15 40 -3 0 29 86 39 105 10 19 26 82 23 93 -1 4 2 7 6 7 5 0 9 6 10 13
1 14 3 24 21 87 7 25 14 52 16 60 2 8 13 56 25 105 30 122 47 215 45 243 -1
12 1 22 5 22 4 0 7 6 7 13 0 6 3 35 7 62 8 69 15 130 21 199 3 32 8 62 11 67
3 5 -1 9 -8 9 -8 0 -9 3 -3 8 6 4 10 49 10 99 0 51 3 93 6 93 3 0 4 15 2 33
-1 17 -5 70 -8 117 -22 349 -25 382 -39 450 -2 14 -7 43 -10 65 -3 22 -14 83
-25 135 -11 52 -17 98 -15 102 3 5 1 8 -4 8 -6 0 -12 15 -15 33 -3 17 -7 41
-11 52 -3 11 -10 40 -16 65 -6 25 -13 52 -17 60 -3 8 -7 20 -8 25 -9 38 -95
278 -132 365 -56 132 -224 471 -243 490 -8 8 -29 43 -42 70 -7 14 -15 27 -18
30 -4 3 -38 53 -78 113 -39 59 -76 113 -82 120 -6 6 -38 48 -71 92 -33 44 -64
82 -68 85 -4 3 -14 14 -22 26 -50 73 -327 359 -448 464 -36 30 -73 63 -83 73
-10 9 -21 17 -24 17 -4 0 -12 6 -18 14 -10 12 -192 153 -263 204 -18 12 -37
22 -43 22 -5 0 -10 4 -10 8 0 5 -18 18 -40 31 -22 12 -45 28 -52 35 -7 7 -25
19 -40 27 -14 8 -83 47 -152 87 -124 71 -322 174 -401 206 -22 10 -53 24 -68
32 -16 8 -35 14 -42 14 -7 0 -15 4 -17 10 -1 5 -15 11 -30 12 -16 1 -28 5 -28
9 0 3 -20 12 -45 19 -25 7 -45 17 -45 21 0 5 -3 8 -7 7 -5 -1 -81 22 -169 51
-89 29 -168 54 -175 55 -8 2 -21 6 -29 9 -8 3 -28 9 -45 13 -16 4 -34 8 -40
10 -21 5 -63 14 -145 33 -47 11 -85 20 -85 21 0 1 -11 3 -25 6 -22 3 -74 13
-107 20 -6 1 -29 5 -50 8 -21 3 -47 7 -58 10 -11 2 -49 7 -85 11 -36 4 -73 9
-83 11 -10 1 -50 6 -90 10 -39 3 -88 8 -107 10 -59 7 -623 11 -665 5z"/>
</g>
</svg>
